<?xml version="1.0" encoding="UTF-8"?>
<svg id="_레이어_1" data-name="레이어_1" xmlns="http://www.w3.org/2000/svg" version="1.1" viewBox="0 0 24 24">
  <!-- Generator: Adobe Illustrator 29.8.4, SVG Export Plug-In . SVG Version: 2.1.1 Build 6)  -->
  <path d="M18.18,6.62h-4.76c-1.84,0-3.44,1.05-4.26,2.59-.57-.63-1.39-1.02-2.29-1.02-1.72,0-3.13,1.42-3.13,3.17,0,.6.16,1.16.46,1.64h-1.67V3.77c0-.42-.34-.77-.76-.77s-.76.35-.76.77v16.46c0,.42.33.77.76.77s.76-.35.76-.77v-1.95h18.96v1.95c0,.42.33.77.76.77s.76-.35.76-.77v-8.72c0-2.69-2.17-4.89-4.82-4.89ZM5.26,11.36c0-.89.72-1.63,1.61-1.63s1.6.73,1.6,1.63-.72,1.64-1.6,1.64-1.61-.73-1.61-1.64ZM21.48,16.73H2.52v-2.19h18.96v2.19ZM21.48,13h-11.35v-1.49c0-1.84,1.48-3.34,3.29-3.34h4.76c1.81,0,3.29,1.5,3.29,3.34v1.49Z"/>
</svg>