<svg width="24" height="24" viewBox="0 0 24 24" fill="none" xmlns="http://www.w3.org/2000/svg">
<path d="M9.5 12.3225L10.8786 13.898C11.005 14.0425 11.233 14.0319 11.3454 13.8762L14.1449 10" stroke="#09090B" stroke-width="1.5" stroke-linecap="round" stroke-linejoin="round"/>
<path d="M12 21C16.9706 21 21 16.9706 21 12C21 7.02944 16.9706 3 12 3C7.02944 3 3 7.02944 3 12C3 13.4397 3.33805 14.8005 3.93911 16.0072C4.39285 16.9182 3.76327 18.1473 3.52336 19.044C3.29066 19.9137 4.08631 20.7093 4.95601 20.4766C5.85267 20.2367 7.0818 19.6071 7.99278 20.0609C9.19953 20.6619 10.5603 21 12 21Z" stroke="#09090B" stroke-width="1.5" stroke-linecap="round" stroke-linejoin="round"/>
</svg>
