<svg width="20" height="20" viewBox="0 0 20 20" fill="none" xmlns="http://www.w3.org/2000/svg">
<path d="M7.22217 10.5278L8.47703 11.9619C8.82985 12.3651 9.46604 12.3354 9.77974 11.9011L12.7777 7.75" stroke="#09090B" stroke-width="1.5" stroke-linecap="round" stroke-linejoin="round"/>
<path d="M17.0832 13.1673V6.83266C17.0829 6.55495 17.01 6.28219 16.8719 6.04175C16.7337 5.80132 16.5352 5.60166 16.2961 5.4628L10.7869 2.29548C10.5476 2.15649 10.2761 2.08331 9.99984 2.08331C9.72353 2.08331 9.45209 2.15649 9.2128 2.29548L3.70354 5.4628C3.46449 5.60166 3.26593 5.80132 3.12779 6.04175C2.98965 6.28219 2.91679 6.55495 2.9165 6.83266V13.1673C2.91679 13.445 2.98965 13.7178 3.12779 13.9582C3.26593 14.1986 3.46449 14.3983 3.70354 14.5372L9.2128 17.7045C9.45209 17.8435 9.72353 17.9166 9.99984 17.9166C10.2761 17.9166 10.5476 17.8435 10.7869 17.7045L16.2961 14.5372C16.5352 14.3983 16.7337 14.1986 16.8719 13.9582C17.01 13.7178 17.0829 13.445 17.0832 13.1673Z" stroke="#09090B" stroke-width="1.5" stroke-linecap="round" stroke-linejoin="round"/>
</svg>
