<?xml version="1.0" encoding="UTF-8"?>
<svg id="_레이어_1" data-name="레이어_1" xmlns="http://www.w3.org/2000/svg" version="1.1" viewBox="0 0 24 24">
  <!-- Generator: Adobe Illustrator 29.8.4, SVG Export Plug-In . SVG Version: 2.1.1 Build 6)  -->
  <defs>
    <style>
      .st0 {
        fill: #374957;
      }
    </style>
  </defs>
  <path class="st0" d="M17.83,6.27h-2.5v-.82c0-.65-.26-1.28-.73-1.74-.47-.46-1.1-.72-1.77-.72h-1.67c-.66,0-1.3.26-1.77.72-.47.46-.73,1.08-.73,1.74v.82h-2.5c-1.1,0-2.16.43-2.94,1.2-.78.77-1.22,1.81-1.22,2.89v6.55c0,1.08.44,2.12,1.22,2.89.78.77,1.84,1.2,2.94,1.2h11.67c1.1,0,2.16-.43,2.94-1.2.78-.77,1.22-1.81,1.22-2.89v-6.55c0-1.08-.44-2.12-1.22-2.89-.78-.77-1.84-1.2-2.94-1.2ZM10.33,5.45c0-.22.09-.43.24-.58.16-.15.37-.24.59-.24h1.67c.22,0,.43.09.59.24.16.15.24.36.24.58v.82h-3.33v-.82ZM20.33,16.91c0,.65-.26,1.28-.73,1.74s-1.1.72-1.77.72H6.17c-.66,0-1.3-.26-1.77-.72-.47-.46-.73-1.08-.73-1.74v-6.55c0-.65.26-1.28.73-1.74.47-.46,1.1-.72,1.77-.72h11.67c.66,0,1.3.26,1.77.72.47.46.73,1.08.73,1.74v6.55ZM15.33,13.64c0,.22-.09.43-.24.58-.16.15-.37.24-.59.24h-1.67v1.64c0,.22-.09.43-.24.58-.16.15-.37.24-.59.24s-.43-.09-.59-.24c-.16-.15-.24-.36-.24-.58v-1.64h-1.67c-.22,0-.43-.09-.59-.24-.16-.15-.24-.36-.24-.58s.09-.43.24-.58c.16-.15.37-.24.59-.24h1.67v-1.64c0-.22.09-.43.24-.58.16-.15.37-.24.59-.24s.43.09.59.24c.16.15.24.36.24.58v1.64h1.67c.22,0,.43.09.59.24.16.15.24.36.24.58Z"/>
</svg>