<?xml version="1.0" encoding="UTF-8"?>
<svg id="_레이어_1" data-name="레이어_1" xmlns="http://www.w3.org/2000/svg" version="1.1" xmlns:xlink="http://www.w3.org/1999/xlink" viewBox="0 0 24 24">
  <!-- Generator: Adobe Illustrator 29.8.4, SVG Export Plug-In . SVG Version: 2.1.1 Build 6)  -->
  <defs>
    <style>
      .st0 {
        fill: none;
      }

      .st1 {
        fill: #374957;
      }

      .st2 {
        clip-path: url(#clippath);
      }
    </style>
    <clipPath id="clippath">
      <rect class="st0" x="2" y="2" width="20" height="20"/>
    </clipPath>
  </defs>
  <g class="st2">
    <path class="st1" d="M22,9.5c0-.46-.12-.91-.36-1.3-.24-.39-.58-.71-.98-.92-.41-.21-.86-.31-1.32-.28-.46.03-.9.19-1.27.45-.38.26-.67.63-.85,1.05-.18.42-.25.88-.18,1.34.06.45.25.88.54,1.24.29.36.67.62,1.1.78v3.49c0,1.33-.53,2.6-1.46,3.54-.94.94-2.21,1.46-3.54,1.46s-2.6-.53-3.54-1.46c-.94-.94-1.46-2.21-1.46-3.54v-.07c1.39-.2,2.65-.89,3.57-1.95.92-1.06,1.42-2.41,1.43-3.81v-3.33c0-1.1-.44-2.16-1.22-2.94-.78-.78-1.84-1.22-2.94-1.22-.22,0-.43.09-.59.24-.16.16-.24.37-.24.59s.09.43.24.59c.16.16.37.24.59.24.66,0,1.3.26,1.77.73s.73,1.1.73,1.77v3.33c0,1.11-.44,2.16-1.22,2.95-.78.78-1.84,1.22-2.95,1.22s-2.16-.44-2.95-1.22c-.78-.78-1.22-1.84-1.22-2.95v-3.33c0-.66.26-1.3.73-1.77s1.1-.73,1.77-.73c.22,0,.43-.09.59-.24.16-.16.24-.37.24-.59s-.09-.43-.24-.59c-.16-.16-.37-.24-.59-.24-1.1,0-2.16.44-2.94,1.22-.78.78-1.22,1.84-1.22,2.94v3.33c0,1.4.51,2.75,1.43,3.81.92,1.06,2.19,1.75,3.57,1.95v.07c0,1.77.7,3.46,1.95,4.71,1.25,1.25,2.95,1.95,4.71,1.95s3.46-.7,4.71-1.95c1.25-1.25,1.95-2.95,1.95-4.71v-3.49c.49-.17.91-.49,1.2-.91s.46-.92.46-1.44ZM19.5,10.33c-.16,0-.33-.05-.46-.14-.14-.09-.24-.22-.31-.37-.06-.15-.08-.32-.05-.48.03-.16.11-.31.23-.43.12-.12.27-.2.43-.23.16-.03.33-.02.48.05.15.06.28.17.37.31.09.14.14.3.14.46,0,.22-.09.43-.24.59-.16.16-.37.24-.59.24Z"/>
  </g>
</svg>