<svg width="24" height="24" viewBox="0 0 24 24" fill="none" xmlns="http://www.w3.org/2000/svg">
<path d="M12.5599 20.8207C12.2247 21.0598 11.7753 21.0598 11.4401 20.8207C6.61138 17.3773 1.48557 10.2971 6.6667 5.18128C8.08118 3.78463 9.99963 3 12 3C14.0004 3 15.9188 3.78463 17.3333 5.18128C22.5144 10.2971 17.3886 17.3773 12.5599 20.8207Z" stroke="#09090B" stroke-width="1.5" stroke-linecap="round" stroke-linejoin="round"/>
<path d="M12 12C13.1046 12 14 11.1046 14 10C14 8.89543 13.1046 8 12 8C10.8954 8 10 8.89543 10 10C10 11.1046 10.8954 12 12 12Z" stroke="#09090B" stroke-width="1.5" stroke-linecap="round" stroke-linejoin="round"/>
</svg>
