<?xml version="1.0" encoding="UTF-8"?>
<svg id="_레이어_1" data-name="레이어_1" xmlns="http://www.w3.org/2000/svg" version="1.1" xmlns:xlink="http://www.w3.org/1999/xlink" viewBox="0 0 24 24">
  <!-- Generator: Adobe Illustrator 29.8.4, SVG Export Plug-In . SVG Version: 2.1.1 Build 6)  -->
  <defs>
    <style>
      .st0 {
        fill: none;
      }

      .st1 {
        fill: #374957;
      }

      .st2 {
        clip-path: url(#clippath);
      }
    </style>
    <clipPath id="clippath">
      <rect class="st0" x="2" y="2" width="20" height="20"/>
    </clipPath>
  </defs>
  <g class="st2">
    <path class="st1" d="M12,22c-.88,0-1.73-.35-2.36-.98-.63-.63-.98-1.47-.98-2.36v-3.33h-3.33c-.88,0-1.73-.35-2.36-.98-.63-.63-.98-1.47-.98-2.36s.35-1.73.98-2.36c.63-.63,1.47-.98,2.36-.98h3.33v-3.33c0-.88.35-1.73.98-2.36.63-.63,1.47-.98,2.36-.98s1.73.35,2.36.98c.63.63.98,1.47.98,2.36v3.33h3.33c.88,0,1.73.35,2.36.98.63.63.98,1.47.98,2.36s-.35,1.73-.98,2.36c-.63.63-1.47.98-2.36.98h-3.33v3.33c0,.88-.35,1.73-.98,2.36-.63.63-1.47.98-2.36.98ZM5.33,10.33c-.44,0-.87.18-1.18.49-.31.31-.49.74-.49,1.18s.18.87.49,1.18c.31.31.74.49,1.18.49h4.17c.22,0,.43.09.59.24.16.16.24.37.24.59v4.17c0,.44.18.87.49,1.18.31.31.74.49,1.18.49s.87-.18,1.18-.49c.31-.31.49-.74.49-1.18v-4.17c0-.22.09-.43.24-.59s.37-.24.59-.24h4.17c.44,0,.87-.18,1.18-.49.31-.31.49-.74.49-1.18s-.18-.87-.49-1.18c-.31-.31-.74-.49-1.18-.49h-4.17c-.22,0-.43-.09-.59-.24-.16-.16-.24-.37-.24-.59v-4.17c0-.44-.18-.87-.49-1.18-.31-.31-.74-.49-1.18-.49s-.87.18-1.18.49c-.31.31-.49.74-.49,1.18v4.17c0,.22-.09.43-.24.59-.16.16-.37.24-.59.24h-4.17Z"/>
  </g>
</svg>