<svg width="24" height="24" viewBox="0 0 24 24" fill="none" xmlns="http://www.w3.org/2000/svg">
<path d="M20 10H4C3.44772 10 3 10.4477 3 11V19C3 19.5523 3.44772 20 4 20H20C20.5523 20 21 19.5523 21 19V11C21 10.4477 20.5523 10 20 10Z" stroke="#09090B" stroke-width="1.5" stroke-linecap="round" stroke-linejoin="round"/>
<path d="M17.5 20V17C17.5 16.4477 17.0523 16 16.5 16H11C10.4477 16 10 16.4477 10 17V20" stroke="#09090B" stroke-width="1.5" stroke-linecap="round" stroke-linejoin="round"/>
<path d="M6 13H8" stroke="#09090B" stroke-width="1.5" stroke-linecap="round" stroke-linejoin="round"/>
<path d="M19 10V5C19 4.44771 18.5523 4 18 4H6C5.4477 4 5 4.44771 5 5V10" stroke="#09090B" stroke-width="1.5" stroke-linecap="round" stroke-linejoin="round"/>
</svg>
