<?xml version="1.0" encoding="UTF-8"?>
<svg id="_레이어_1" data-name="레이어_1" xmlns="http://www.w3.org/2000/svg" version="1.1" xmlns:xlink="http://www.w3.org/1999/xlink" viewBox="0 0 24 24">
  <!-- Generator: Adobe Illustrator 29.8.4, SVG Export Plug-In . SVG Version: 2.1.1 Build 6)  -->
  <defs>
    <style>
      .st0 {
        fill: none;
      }

      .st1 {
        fill: #374957;
      }

      .st2 {
        clip-path: url(#clippath);
      }
    </style>
    <clipPath id="clippath">
      <rect class="st0" x="2" y="2" width="20" height="20"/>
    </clipPath>
  </defs>
  <g class="st2">
    <path class="st1" d="M21.86,9.33c-.17-.54-.51-1.02-.97-1.35-.46-.33-1.02-.51-1.58-.51h-3.64l-1.11-3.45c-.17-.54-.52-1.02-.98-1.35-.46-.34-1.02-.52-1.59-.52s-1.12.18-1.58.52c-.46.34-.8.81-.98,1.35l-1.11,3.45h-3.64c-.57,0-1.12.18-1.58.51-.46.33-.8.8-.98,1.34-.18.54-.18,1.12,0,1.66.17.54.51,1.01.97,1.34l2.96,2.17-1.13,3.49c-.18.54-.18,1.13,0,1.67.18.54.53,1.01.99,1.34.46.34,1.02.52,1.59.52.57,0,1.13-.19,1.58-.53l2.9-2.14,2.9,2.13c.46.34,1.01.52,1.58.52.57,0,1.12-.17,1.59-.51.46-.33.81-.8.98-1.34.18-.54.18-1.12,0-1.66l-1.13-3.49,2.97-2.17c.46-.33.81-.8.98-1.34.17-.54.17-1.12-.01-1.66ZM19.91,10.99l-3.45,2.52c-.14.1-.25.25-.3.42-.05.17-.05.35,0,.51l1.31,4.06c.07.21.07.43,0,.63-.07.21-.2.38-.37.51-.18.13-.39.19-.6.19-.22,0-.43-.07-.6-.2l-3.4-2.5c-.14-.11-.32-.16-.49-.16s-.35.06-.49.16l-3.4,2.5c-.17.13-.39.2-.6.2-.22,0-.43-.07-.61-.19-.18-.13-.31-.31-.38-.51-.07-.21-.07-.43,0-.64l1.32-4.06c.05-.17.05-.35,0-.51-.05-.17-.16-.31-.3-.42l-3.45-2.52c-.17-.13-.3-.31-.37-.51-.07-.21-.07-.43,0-.63.07-.2.2-.38.37-.51.17-.13.38-.19.6-.2h4.25c.18,0,.35-.06.49-.16.14-.1.25-.25.3-.42l1.29-4.03c.07-.21.2-.39.37-.51.17-.13.39-.2.6-.2s.43.07.6.2c.17.13.3.31.37.51l1.29,4.03c.05.17.16.31.3.42.14.1.31.16.49.16h4.25c.22,0,.43.07.6.2.17.13.3.31.37.51s.07.43,0,.63c-.07.21-.2.38-.37.51h0Z"/>
  </g>
</svg>