<svg width="24" height="24" viewBox="0 0 24 24" fill="none" xmlns="http://www.w3.org/2000/svg">
<path d="M7.04614 18.705C7.80201 13.1784 16.198 13.1784 16.9539 18.705" stroke="#09090B" stroke-width="1.5" stroke-linecap="round" stroke-linejoin="round"/>
<circle cx="11.5" cy="9.5" r="2.5" stroke="#09090B" stroke-width="1.5" stroke-linecap="round" stroke-linejoin="round"/>
<path d="M20.5 15.8008V8.19922C20.4997 7.86596 20.4122 7.53865 20.2465 7.25013C20.0807 6.96161 19.8424 6.72201 19.5556 6.55538L12.9444 2.7546C12.6573 2.58781 12.3316 2.5 12 2.5C11.6684 2.5 11.3427 2.58781 11.0556 2.7546L4.44444 6.55538C4.15758 6.72201 3.91931 6.96161 3.75355 7.25013C3.58778 7.53865 3.50034 7.86596 3.5 8.19922V15.8008C3.50034 16.134 3.58778 16.4613 3.75355 16.7499C3.91931 17.0384 4.15758 17.278 4.44444 17.4446L11.0556 21.2454C11.3427 21.4122 11.6684 21.5 12 21.5C12.3316 21.5 12.6573 21.4122 12.9444 21.2454L19.5556 17.4446C19.8424 17.278 20.0807 17.0384 20.2465 16.7499C20.4122 16.4613 20.4997 16.134 20.5 15.8008Z" stroke="#09090B" stroke-width="1.5" stroke-linecap="round" stroke-linejoin="round"/>
</svg>
