<?xml version="1.0" encoding="UTF-8"?>
<svg id="_레이어_1" data-name="레이어_1" xmlns="http://www.w3.org/2000/svg" version="1.1" xmlns:xlink="http://www.w3.org/1999/xlink" viewBox="0 0 24 24">
  <!-- Generator: Adobe Illustrator 29.8.4, SVG Export Plug-In . SVG Version: 2.1.1 Build 6)  -->
  <defs>
    <style>
      .st0 {
        fill: none;
      }

      .st1 {
        fill: #374957;
      }

      .st2 {
        clip-path: url(#clippath);
      }
    </style>
    <clipPath id="clippath">
      <rect class="st0" x="2" y="2" width="20" height="20"/>
    </clipPath>
  </defs>
  <g class="st2">
    <path class="st1" d="M16.17,2c-.22,0-.43.09-.59.24-.16.16-.24.37-.24.59,0,2.46-2.15,3.33-4.17,3.33h-5.83c-.88,0-1.73.35-2.36.98-.63.63-.98,1.47-.98,2.36v1.67c0,.5.12.99.33,1.44.22.45.54.84.93,1.15l2.98,6.64c.21.48.56.88.99,1.16.44.28.95.43,1.47.44.41,0,.82-.1,1.19-.3.36-.2.67-.48.9-.83.23-.35.36-.75.39-1.16.03-.41-.04-.83-.21-1.21l-1.83-4h2.03c2.01,0,4.17.88,4.17,3.33,0,.22.09.43.24.59s.37.24.59.24.43-.09.59-.24.24-.37.24-.59V2.83c0-.22-.09-.43-.24-.59-.16-.16-.37-.24-.59-.24h0ZM9.45,19.18c.06.12.08.26.07.4-.01.14-.06.27-.13.38-.07.11-.18.21-.3.27s-.25.1-.39.1c-.2,0-.39-.06-.56-.17-.17-.11-.3-.26-.38-.45l-2.34-5.22h1.88l2.15,4.68ZM15.33,14.17c-1.19-.92-2.66-1.39-4.17-1.33h-5.83c-.44,0-.87-.18-1.18-.49-.31-.31-.49-.74-.49-1.18v-1.67c0-.44.18-.87.49-1.18.31-.31.74-.49,1.18-.49h5.83c1.5.06,2.98-.41,4.17-1.33v7.66ZM21.92,14.88c-.05.1-.12.19-.2.26-.08.07-.18.13-.28.16-.1.03-.21.05-.32.04-.11,0-.22-.04-.31-.09l-1.67-.83c-.2-.1-.35-.27-.42-.48-.07-.21-.05-.44.04-.64.1-.2.27-.35.48-.42.21-.07.44-.05.64.04l1.67.83c.2.1.35.27.42.48.07.21.05.44-.04.63h0ZM18.76,7.38c-.05-.1-.08-.2-.09-.31,0-.11,0-.22.04-.32.03-.1.09-.2.16-.28.07-.08.16-.15.26-.2l1.67-.83c.2-.1.43-.11.64-.04.21.07.38.22.48.42.1.2.12.43.04.64-.07.21-.22.38-.42.48l-1.67.83c-.1.05-.2.08-.31.09-.11,0-.22,0-.32-.04-.1-.03-.2-.09-.28-.16-.08-.07-.15-.16-.2-.26ZM18.67,10.33c0-.22.09-.43.24-.59.16-.16.37-.24.59-.24h1.67c.22,0,.43.09.59.24.16.16.24.37.24.59s-.09.43-.24.59-.37.24-.59.24h-1.67c-.22,0-.43-.09-.59-.24s-.24-.37-.24-.59Z"/>
  </g>
</svg>